/* XPM */
static char *d387f0688c7a440bc765ba3998a016b03iAwALSBKl7W6Eca[] = {
/* columns rows colors chars-per-pixel */
"64 64 11 1 ",
"  c #000008",
". c gray20",
"X c #434343",
"o c #535353",
"O c #777777",
"+ c #5F9B00",
"@ c #7FB717",
"# c #A3D337",
"$ c #C7EF63",
"% c gray53",
"& c #979797",
/* pixels */
"OOOOOOOOOOOOOOOOOOOOOOOOOOOOOOOOOOOOOOOOOOOOOOOOOOOOOOOOOOOOOOOO",
"Ooooooooooooooooooooooooooooooo..ooooooooooooooooooooooooooooooO",
"Ooooooooooooooooooooooooooooooo..ooooooooooooooooooooooooooooooO",
"............................................................... ",
" .%OOOOOOOOOOOOOOOOOOOOOOOOOOO.  .%OOOOOOOOOOOOOOOOOOOOOOOOOOO. ",
" .Oooooooooooooooooooooooooooo.  .Oooooooooooooooooooooooooooo. ",
" .OoOXoooooooooooooooooooooOXo.  .OoOXoooooooooooooooooooooOXo. ",
" .OoX.oooooooooooooooooooooX.o.  .OoX.oooooooooooooooooooooX.o. ",
" .Oooooooooooooooooooooooooooo.  .Oooooooooooooooooooooooooooo. ",
" .Oooooooooooooooooooooooooooo.  .Oooooooooooooooooooooooooooo. ",
" .Oooooooooooooooooooooooooooo.  .Oooooooooooooooooooooooooooo. ",
" .Oooooooooooooooooooooooooooo.  .Oooooooooooooooooooooooooooo. ",
" .Oooooooooooooooooooooooooooo.  .Oooooooooooooooooooooooooooo. ",
" .Oooooooooooooooooooooooooooo.  .Oooooooooooooooooooooooooooo. ",
" .Oooooooooooooooooooooooooooo.  .Oooooooooooooooooooooooooooo. ",
" .Oooooooooooooooooooooooooooo.  .Oooooooooooooooooooooooooooo. ",
" .Oooooooooooooooooooooooooooo.  .Oooooooooooooooooooooooooooo. ",
" .Oooooooooooooooooooooooooooo.  .Oooooooooooooooooooooooooooo. ",
" .Oooooooooooooooooooooooooooo.  .Oooooooooooooooooooooooooooo. ",
" .Oooooooooooooooooooooooooooo.  .Oooooooooooooooooooooooooooo. ",
" .Oooooooooooooooooooooooooooo.  .Oooooooooooooooooooooooooooo. ",
" .Oooooooooooooooooooooooooooo.  .OooooooooooOOOOOOOOOOOoooooo. ",
" .OoOXoooooooooooooooooooooOXo.  .OoOXooooooO           .ooOXo. ",
" .OoX.oooooooooooooooooooooX.o.  .OoX.ooooooO       . . .ooX.o. ",
" .Oooooooooooooooooooooooooooo.  .OoooooooooO  $##@ o o .ooooo. ",
" ..............................  ...........O  #@@+ O O ........",
" .%OOOOOOOOOOOOOOOOOOOOOO %OOO.  %OOO. %OOOOO  #@@+ O O .OOOOO. ",
" .Ooooooooooooooooooooooo Oooo.  Oooo. OooooO  #@@+ & O .ooooo. ",
" .OoOXooooooooooooooooOXo Oooo.  Oooo. OoOXoO  @+++ & & .ooOXo. ",
" .OoX.ooooooooooooooooX.o Oooo.  Oooo. OoX.oO       & & .ooX.o. ",
" .Ooooooooooooooooooooooo O@@@.  O@@@. OooooO  OOoX O O .ooooo. ",
" .Ooooooooooooooooooooooo O@@@.  O@@@. OooooO  OoX. O O .ooooo. ",
" .Ooooooooooooooooooooooo Oooo.  Oooo. OooooO       O O .ooooo. ",
" .Ooooooooooooooooooooooo Oo...  O..o. OooooO  OOoX o O .ooooo. ",
" .Ooooooooooooooooooooooo Oo  .  O  o. OooooO  OoX. o o .ooooo. ",
" .Ooooooooooooooooooooooo Oo  .  O  o. OooooO       X X .ooooo. ",
" .Ooooooooooooooooooooooo Oo  .  O  o. OooooO       . . .ooooo. ",
" .Ooooooooooooooooooooooo Oo  .  O  o. OooooO           .ooooo. ",
" .OoOXooooooooooooooooOXo Oooo.  Oooo. OoOXoo............ooOXo. ",
" .OoX.ooooooooooooooooX.o .....  ..... OoX.ooooooooooooooooX.o. ",
" .Ooooooooooooooooooooooo              Ooooooooooooooooooooooo. ",
" ..............................  ...............................",
" .%OOOOOOOOOOOOOOOOOOOOOOOOOOO.  .%OOOOOOOOOOOOOOOOOOOOOOOOOOO. ",
" .Oooooooooooooooooooooooooooo.  .Oooooooooooooooooooooooooooo. ",
" .OoOXoooooooooooooooooooooOXo.  .OoOXoooooooooooooooooooooOXo. ",
" .OoX.oooooooooooooooooooooX.o.  .OoX.oooooooooooooooooooooX.o. ",
" .Oooooooooooooooooooooooooooo.  .Oooooooooooooooooooooooooooo. ",
" .Oooooooooooooooooooooooooooo.  .Oooooooooooooooooooooooooooo. ",
" .Oooooooooooooooooooooooooooo.  .Oooooooooooooooooooooooooooo. ",
" .Oooooooooooooooooooooooooooo.  .Oooooooooooooooooooooooooooo. ",
" .Oooooooooooooooooooooooooooo.  .Oooooooooooooooooooooooooooo. ",
" .Oooooooooooooooooooooooooooo.  .Oooooooooooooooooooooooooooo. ",
" .OoOXoooooooooooooooooooooOXo.  .OoOXoooooooooooooooooooooOXo. ",
" .OoX.oooooooooooooooooooooX.o.  .OoX.oooooooooooooooooooooX.o. ",
" .Oooooooooooooooooooooooooooo.  .Oooooooooooooooooooooooooooo. ",
" ..............................  .............................. ",
"OOOOOOOOOOOOOOOOOOOOOOOOOOOOOO.  .OOOOOOOOOOOOOOOOOOOOOOOOOOOOO.",
"Oooooooooooooooooooooooooooooo.  .ooooooooooooooooooooooooooooo.",
"Oooooooooooooooooooooooooooooo.  .ooooooooooooooooooooooooooooo.",
"Oooooooooooooooooooooooooooooo.  .ooooooooooooooooooooooooooooo.",
"Oooooooooooooooooooooooooooooo.  .ooooooooooooooooooooooooooooo.",
"Oooooooooooooooooooooooooooooo.  .ooooooooooooooooooooooooooooo.",
"Oooooooooooooooooooooooooooooo.  .ooooooooooooooooooooooooooooo.",
"...............................  ..............................."
};
