/* XPM */
static char *f6267063ca3440dc86ee789301bb10c7YaAHQVPBIo3hzBVQ[] = {
/* columns rows colors chars-per-pixel */
"64 64 20 1 ",
"  c None",
". c #0B2B00",
"X c #133B07",
"o c gray20",
"O c #4B0B00",
"+ c #5F1700",
"@ c #731F00",
"# c #1B4B0B",
"$ c #235B13",
"% c #2F671B",
"& c #3B7727",
"* c #535353",
"= c #777777",
"- c #872F00",
"; c #9B3B00",
": c #AF4F00",
"> c #478733",
", c #579343",
"< c #67A353",
"1 c #9FCF8F",
/* pixels */
"                                                                ",
"                 XX                          XX                 ",
"                $$X                          X$$                ",
"               $$$$X                        X$$$$               ",
"              $%$XXXX                      XXXX$%$              ",
"             $>%$  XXX       XXXXXX       XXX  $%>$             ",
"            $>>$X   XX    XXX##%%##XXX    XX   X$>>$            ",
"           $%%$X     XXXXX#$$%&>>&%$$#XXXXX     X$%%$           ",
"           X$$X      XXX#$$%&&>,,>&&%$$#XXX      X$$X           ",
"            XX      X######$%%&>>&%%$######X      XX            ",
"                   X##&&&&##$%%&&%%$##&&&&##X                   ",
"                   X#&>>>>&##$$%%$$##&>>>>&#X                   ",
"                   #&><11<>###$%%$###><11<>&#                   ",
"                   #&>><<>>&##$$$$##&>><<>>&#                   ",
"                   #%&>>>>&&#X####X#&&>>>>&%#                   ",
"                   #%&&>>&&%#XX##XX#%&&>>&&%#                   ",
"                   X#%%&&%%#XXXXXXXX#%%&&%%#X                   ",
"                    X#%%%%#%%*XXXX*%%#%%%%#X                    ",
"                     X####%****@@****%####X                     ",
"                 ..X..XXX=***oo@@oo***=XXX..X..                 ",
"            .. .XXX###..+=**o++@@++o**=+..###XXX. ..            ",
"           .....XX#####+@=*oo++@@++oo*=@+#####XX.....           ",
"         ..XX..XXX#####+@=**oo+@@+oo**=@+#####XXX..XX..         ",
"         .##X..XXX#####+@+=**o+@@+o**=+@+#####XXX..X##.         ",
"         ###X..XXXXX###+@@+==*@@@@*==+@@+###XXXXX..X###         ",
"        #$##X...XXXX###O+@@+++@@@@+++@@+O###XXXX...X##$#        ",
"        %%$X... .XXXX##X+@@@@@@@@@@@@@@+X##XXXX. ...X$%%        ",
"       .%$X...  ..XXXXXXO+@@;;::::;;@@+OXXXXXX..  ...X$%.       ",
"      ..#XX..    ..XXXXXXO+@@;;::;;@@+OXXXXXX..    ..XX#..      ",
"      ...X...      ....XXXO+@@@@@@@@+OXXX....      ...X...      ",
"      ........       ....XXOOOOOOOOOOXX....       ........      ",
"       ..XXXX..       ...X+@@------@@+X...       ..XXXX..       ",
"        X####..       ..X+@@--;::;--@@+X..       ..####X        ",
"         X#XXXX        .X+@@--;;;;--@@+X.        XXXX#X         ",
"          XXXX.        .XX+@@------@@+XX.        .XXXX          ",
"           .X..        ..XXO+@++++@+OXX..        ..X.           ",
"           ....         ...XOOOOOOOOX...         ....           ",
"          .....         ..X+@@@@@@@@+X..         .....          ",
"          ......         .X+@--;;--@+X.         ......          ",
"         .......         .X#+@----@+#X.         .......         ",
"        .X....X.        ...XXOOOOOOXX...        .X....X.        ",
"       X##X.X..X        ....XXXXXXXX....        X..X.X##X       ",
"       .###.X..#       .X...XXXXXXXX...X.       #..X.###.       ",
"       .#$#. ..#     XXXX....XXXXXX....XXXX     #.. .#$#.       ",
"       XX$$. .#.    XX$XXX.....XX.....XXX$XX    .#. .$$XX       ",
"        X%$X  .     X$$$XX............XX$$$X     .  X$%X        ",
"         X%.       X$&&XXX.....  .....XXX&&$X       .%X         ",
"          X.      X$&&$XXX....    ....XXX$&&$X      .X          ",
"                 X$&&$XXXX..        ..XXXX$&&$X                 ",
"                 $$&$XXXXX.          .XXXXX$&$$                 ",
"                 X&&$X.XX.            .XX.X$&&X                 ",
"                X$&$XX.X.              .X.XX$&$X                ",
"                X$$$X...                ...X$$$X                ",
"                ...X.....              .....X...                ",
"                 ..........          ..........                 ",
"                     .......        .......                     ",
"                       ......      ......                       ",
"                       XXX....    ....XXX                       ",
"                      XXXXX...    ...XXXXX                      ",
"                     XXXX.XX.      .XX.XXXX                     ",
"                   $$$$X.XXX.      .XXX.X$$$$                   ",
"                 .X$$XX.  $$$.    .$$$  .XX$$X.                 ",
"                 .....    X$$$.  .$$$X    .....                 ",
"                                                                "
};
