/* XPM */
static char *d2f10f06477842499be1f91ab2901941wr60caIzCptslL7z[] = {
/* columns rows colors chars-per-pixel */
"64 64 19 1 ",
"  c #000008",
". c gray8",
"X c gray16",
"o c #313131",
"O c gray20",
"+ c #373737",
"@ c gray22",
"# c #393939",
"$ c gray26",
"% c gray28",
"& c #4C4C4C",
"* c #515151",
"= c gray32",
"- c #535353",
"; c gray36",
": c #872F00",
"> c #AB7228",
", c #F39317",
"< c gray53",
/* pixels */
".............*<<**ooo.....................*<<--ooo..............",
"o$;;;;;;;;;&..........X;;;;;;;;;;;;;;;;;$..........X;;;;;;;;;;&.",
".;&;;;;;;;;&.*<<**ooo.X;;;;;;;;;;;;;;;;;$.*<<--+oo.X;;;;;;;;;&o.",
".;;&;;;;;;;&.*<<**ooo.X;;;;;;;;;;;;;;;;;$.*<<-*ooo.X;;;;;;;;&oX.",
".;;*%******&.*<<-*ooo.X*****************$.*<<**ooo.X*******%oXX.",
".;;*$$$$$$$$.*<<--ooo.X$$$$$$$$$$$$$$$$$$.*<<**ooo.X$$$$$$$$oXX.",
".;;*$$$$$$$$.*<<--++o.X$$$$$$$$$$$$$$$$$$.*<<**ooo.X$$$$$$$$oXX.",
".;;*$+X+$$$$.*<<--++o.X$$$$$$$$$$$$$$$$$$.*<<**ooo.X$$$$+X+$oXX.",
".;;*$X.X$$$$..........X$$$$$$$$$$$$$$$$$$..........X$$$$X.X$oXX.",
".;;*$@X+$$$$..*<**oo..X$$$$$$$$$$$$$$$$$$..*<**oo..X$$$$@X+$oXX.",
".;;*$$$$$$$$..........X$$$$$$$$$$$$$$$$$$..........X$$$$$$$$oXX.",
".;;*$$$$$$$$..*<**oo..X$$$$$$$$$$$$$$$$$$..*<**oo..X$$$$$$$$oXX.",
".;;*$$$$$$$$..........X$$$$$$$$$$$$$$$$$$..........X$$$$$$$$oXX.",
".;;*$$$$$$$$XXXXXXXXXXX$$$$$$$$$$$$$$$$$$XXXXXXXXXXX$$$$$$$$oXX.",
".;;*$$$$$$$$$$$$$$$$$$$$$$$$$$$$$$$$$$$$$$$$$$$$$$$$$$$$$$$$oXX.",
".;;*$$$$$XXXXXXXXXXXXXXXXXXXXXXXXXXXXXXXXXXXXXXXXXXXXX$$$$$$oXX.",
".;;*$$$$$X                                           X$$$$$$oXX.",
".;;*$$$$$X,,,:       :,,,,,,,:       :,,,,,,,:       X$$$$$$oXX.",
".;;*$$$$$X,,:       :,,,,,,,:       :,,,,,,,:       :X$$$$$$oXX.",
".;;*$$$$$X,:       :,,,,,,,:       :,,,,,,,:       :,X$$$$$$oXX.",
".;;*$$$$$X:       :,,,,,,,:       :,,,,,,,:       :,,X$$$$$$oXX.",
".;;*$$$$$X       :,,,,,,,:       :,,,,,,,:       :,,,X$$$$$$oXX.",
".;;*$$$$$X      :,,,,,,,:       :,,,,,,,:       :,,,,X$$$$$$oXX.",
".;;*$+X+$X     :,,,,,,,:       :,,,,,,,:       :,,,,,X$$+X+$oXX.",
".;;*$X.X$X    :,,,,,,,:       :,,,,,,,:       :,,,,,,X$$X.X$oXX.",
".;;*$@X+$@$$$$$$$$$$$$$$$$$$$$$$$$$$$$$$$$$$$$$$$$$$$X$$@X+$oXX.",
".;;*$$$$$@$;;;;;;;;;;;;;;;;;;;;;;;;;;;;;;;;;;;;;;;;;$X$$$$$$oXX.",
".;;*$$$$$$$$$$$$$$$$$$$$$$$$$$$$$$$$$$$$$$$$$$$$$$$$$$$$$$$$oXX.",
".;;*@ooooooooooooooooooooooooooooooooooooooooooooooooooooooo+XX.",
".;*oXXXXXXXXXXXXXXXXXXXXXXXXXXXXXXXXXXXXXXXXXXXXXXXXXXXXXXXXXoX.",
".*oXXXXXXXXXXXXXXXXXXXXXXXXXXXXXXXXXXXXXXXXXXXXXXXXXXXXXXXXXXXo.",
"................................................................",
"................................................................",
".*;;;;;;;;;;;;;;;;;;;;;;;;;;;;;;;;;;;;;;;;;;;;;;;;;;;;;;;;;;;;&.",
".;*;;;;;;;;;;;;;;;;;;;;;;;;;;;;;;;;;;;;;;;;;;;;;;;;;;;;;;;;;;$X.",
".;;*;;;;;;;;;;;;;;;;;;;;;;;;;;;;;;;;;;;;;;;;;;;;;;;;;;;;;;;;&XX.",
".;;*$******************************************************&oXX.",
".;;*$$$$$XXXXXXXXXXXXXXXXXXXXXXXXXXXXXXXXXXXXXXXXXXXXX$$$$$$oXX.",
".;;*$$$$$X                                           X$$$$$$oXX.",
".;;*$+X+$X,,,:       :,,,,,,,:       :,,,,,,,:       X$$+X+$oXX.",
".;;*$X.X$X,,:       :,,,,,,,:       :,,,,,,,:       :X$$X.X$oXX.",
".;;*$@X+$X,:       :,,,,,,,:       :,,,,,,,:       :,X$$@X+$oXX.",
".;;*$$$$$X:       :,,,,,,,:       :,,,,,,,:       :,,X$$$$$$oXX.",
".;;*$$$$$X       :,,,,,,,:       :,,,,,,,:       :,,,X$$$$$$oXX.",
".;;*$$$$$X      :,,,,,,,:       :,,,,,,,:       :,,,,X$$$$$$oXX.",
".;;*$$$$$X     :,,,,,,,:       :,,,,,,,:       :,,,,,X$$$$$$oXX.",
".;;*$$$$$o    :,,,,,,,:       :,,,,,,,:       :,,,,,>X$$$$$$oXX.",
".;;*$$$$$@$$$$$$$$$$$$$$$$$$$$$$$$$$$$$$$$$$$$$$$$$$$X$$$$$$oXX.",
".;;*$$$$$@$*;;;;;;;;;;;;;;;;;;;;;;;;;;;;;;;;;;;;;;;*$@$$$$$$oXX.",
".;;*$$$$$$$$$$$$$$$$$$$$$$$$$$$$$$$$$$$$$$$$$$$$$$$$$$$$$$$$oXX.",
".;;*$$$$$$$$ooXXXXXXXXo$$$$$$$$$$$$$$$$$$ooooXXXXXoX$$$$$$$$oXX.",
".;;*$$$$$$$$..........X$$$$$$$$$$$$$$$$$$..........o$$$$$$$$oXX.",
".;;*$$$$$$$$..*<**oo..X$$$$$$$$$$$$$$$$$$..*<**oo..o$$$$$$$$oXX.",
".;;*$$$$$$$$..........X$$$$$$$$$$$$$$$$$$..........X$$$$$$$$oXX.",
".;;*$$$$$$$$..*<**oo..X$$$$$$$$$$$$$$$$$$..*<**oo..X$$$$$$$$oXX.",
".;;*$+X+$$$$..........X$$$$$$$$$$$$$$$$$$..........X$$$$+X+$oXX.",
".;;*$X.X$$$$.*<<**ooo.X$$$$$$$$$$$$$$$$$$.*<<--+oo.X$$$$X.X$oXX.",
".;;*$@X+$$$$.*<<*-ooo.X$$$$$$$$$$$$$$$$$$.*<<--+oo.X$$$$@X+$oXX.",
".;;*$$$$$$$$.*<<**o+o.X$$$$$$$$$$$$$$$$$$.*<<-*ooo.X$$$$$$$$oXX.",
".;;*$$$$$$$$.*<<--o+o.Xooooooooooooooooo$.*<<**ooo.X$$$$$$$$oXX.",
".;;$ooooooo$.*<<--ooo.XXXXXXXXXXXXXXXXXX$.*<<**ooo.+++oooooo$XX.",
".;&XXXXXXXX$.*<<--ooo.XXXXXXXXXXXXXXXXXX$.*<<**ooo.XXXXXXXXXX$X.",
".&XXXXXXXXX$..........XXXXXXXXXXXXXXXXXX$..........XXXXXXXXXXX$.",
".............*<<**oo+.....................*<<**ooo.............."
};
